<?xml version="1.0" encoding="utf-8"?>
<svg xmlns="http://www.w3.org/2000/svg" height="128" width="128" viewBox="0 0 128 128">
  <g>
    <path id="path1" transform="rotate(0,64,64) translate(0,11.5999984741211) scale(4,4)  " fill="#3D5AD7" d="M14,19.800008L14,22.49999 15.899994,23.899982 15.899994,20.399984C15.5,20.200002,14.799995,19.99999,14,19.800008z M18.299995,19.599996L18,19.700002C17.5,19.800008,17,19.99999,16.5,20.200002L16.399994,20.200002 16.399994,23.800006 18.299995,22.49999z M11.599998,19.099998L11.599998,20.800008 13.5,22.099996 13.5,19.599996 13.399994,19.599996C12.899994,19.499992,12.399994,19.30001,11.799995,19.200004z M20.5,19.020324L20.223436,19.076558C19.843748,19.156249,19.449999,19.249999,19,19.399985L18.699997,19.499992 18.699997,22.200002 20.5,20.899984z M24,18.599998C24,18.599998,22.899994,18.599998,21.299995,18.999992L21.199997,18.999992 21.199997,20.599996z M8.1999969,18.30001L11.099998,20.399984 11.099998,18.999992C9.6999969,18.599998,8.5,18.30001,8.1999969,18.30001z M20.899994,10.999994C22.199997,10.999994 23.199997,11.999994 23.199997,13.300012 23.199997,14.6 22.199997,15.599999 20.899994,15.599999 19.599998,15.599999 18.599998,14.6 18.599998,13.300012 18.599998,11.999994 19.599998,10.999994 20.899994,10.999994z M11.299995,10.999994C12.599998,10.999994 13.599998,11.999994 13.599998,13.300012 13.599998,14.6 12.599998,15.599999 11.299995,15.599999 10,15.599999 9,14.6 9,13.300012 9,11.999994 10,10.999994 11.299995,10.999994z M20.899994,9.8999892C19,9.8999892 17.5,11.399988 17.5,13.300012 17.5,15.200005 19,16.700004 20.899994,16.700004 22.799995,16.700004 24.299995,15.200005 24.299995,13.300012 24.299995,11.399988 22.799995,9.8999892 20.899994,9.8999892z M11.299995,9.8999892C9.3999939,9.8999892 7.8999939,11.399988 7.8999939,13.300012 7.8999939,15.200005 9.3999939,16.700004 11.299995,16.700004 13.199997,16.700004 14.699997,15.200005 14.699997,13.300012 14.599998,11.399988 13.099998,9.8999892 11.299995,9.8999892z M21.899994,1.2000117C21.399994,1.2000116 21,1.6000052 21,2.1000052 21,2.6000048 21.399994,2.9999984 21.899994,2.9999987 22.399994,2.9999984 22.799995,2.6000048 22.799995,2.1000052 22.799995,1.6000052 22.399994,1.2000116 21.899994,1.2000117z M10.399994,1.2000117C9.8999939,1.2000116 9.5,1.6000052 9.5,2.1000052 9.5,2.6000048 9.8999939,2.9999984 10.399994,2.9999987 10.899994,2.9999984 11.299995,2.6000048 11.299995,2.1000052 11.299995,1.6000052 10.899994,1.2000116 10.399994,1.2000117z M10.399994,0C11.599998,-9.5365976E-08 12.5,0.99999938 12.5,2.1000052 12.5,3.1000045 11.899994,3.8999918 11,4.1000043L11,5.9999972 11.099998,5.9999972C11.5,5.8999911,12,5.8999911,12.399994,5.8999911L19.899994,5.8999911C20.399994,5.8999911,20.799995,5.8999911,21.199997,5.9999972L21.299995,5.9999972 21.299995,4.2000099C20.399994,3.8999918 19.799995,3.1000045 19.799995,2.2000113 19.799995,0.99999938 20.799995,0.10000596 21.899994,0.1000061 23.099998,0.10000596 24,1.1000055 24,2.2000113 24,3.2000106 23.399994,3.9999982 22.5,4.2000099L22.5,6.3000151 22.799995,6.3999907C25.099998,7.3999902,26.799995,9.3999892,27.199997,11.899988L27.199997,11.999994 29.299995,11.999994 29.299995,13.499993 31,13.499993 31,14.399987 32,14.399987 32,15.599999 31,15.599999 31,16.200004 29.299995,16.200004 29.299995,17.999992 27.299995,17.999992 27.299995,18.80001C27.299995,22.899984,24,26.2,19.899994,26.2L12.399994,26.2C8.2999954,26.2,5,22.899984,5,18.80001L5,17.999992 2.6999969,17.999992 2.6999969,16.30001 1,16.30001 1,15.700005 0,15.700005 0,14.499993 1,14.499993 1,13.6 2.6999969,13.6 2.6999969,12.1 5.0999985,12.1 5.0999985,11.999994C5.5,9.4999953,7.1999969,7.4999963,9.5,6.4999968L9.7999954,6.3999907 9.7999954,4.2000099C8.8999939,3.8999918 8.2999954,3.1000045 8.2999954,2.2000113 8.1999969,0.99999938 9.1999969,-9.5365976E-08 10.399994,0z" />
  </g>
</svg>

